<svg aria-roledescription="er" role="graphics-document document" viewBox="0 0 377.35565185546875 196" style="max-width: 377.356px; background-color: white;" xmlns:xlink="http://www.w3.org/1999/xlink" xmlns="http://www.w3.org/2000/svg" width="100%" id="my-svg"><style>#my-svg{font-family:"trebuchet ms",verdana,arial,sans-serif;font-size:16px;fill:#000000;}#my-svg .error-icon{fill:#552222;}#my-svg .error-text{fill:#552222;stroke:#552222;}#my-svg .edge-thickness-normal{stroke-width:2px;}#my-svg .edge-thickness-thick{stroke-width:3.5px;}#my-svg .edge-pattern-solid{stroke-dasharray:0;}#my-svg .edge-pattern-dashed{stroke-dasharray:3;}#my-svg .edge-pattern-dotted{stroke-dasharray:2;}#my-svg .marker{fill:#000000;stroke:#000000;}#my-svg .marker.cross{stroke:#000000;}#my-svg svg{font-family:"trebuchet ms",verdana,arial,sans-serif;font-size:16px;}#my-svg .entityBox{fill:#cde498;stroke:#13540c;}#my-svg .attributeBoxOdd{fill:#ffffff;stroke:#13540c;}#my-svg .attributeBoxEven{fill:#f2f2f2;stroke:#13540c;}#my-svg .relationshipLabelBox{fill:hsl(78.1578947368, 58.4615384615%, 84.5098039216%);opacity:0.7;background-color:hsl(78.1578947368, 58.4615384615%, 84.5098039216%);}#my-svg .relationshipLabelBox rect{opacity:0.5;}#my-svg .relationshipLine{stroke:#000000;}#my-svg .entityTitleText{text-anchor:middle;font-size:18px;fill:#000000;}#my-svg #MD_PARENT_START{fill:#f5f5f5!important;stroke:#000000!important;stroke-width:1;}#my-svg #MD_PARENT_END{fill:#f5f5f5!important;stroke:#000000!important;stroke-width:1;}#my-svg :root{--mermaid-font-family:"trebuchet ms",verdana,arial,sans-serif;}</style><g/><defs><marker orient="auto" markerHeight="240" markerWidth="190" refY="7" refX="0" id="MD_PARENT_START"><path d="M 18,7 L9,13 L1,7 L9,1 Z"/></marker></defs><defs><marker orient="auto" markerHeight="28" markerWidth="20" refY="7" refX="19" id="MD_PARENT_END"><path d="M 18,7 L9,13 L1,7 L9,1 Z"/></marker></defs><defs><marker orient="auto" markerHeight="18" markerWidth="18" refY="9" refX="0" id="ONLY_ONE_START"><path d="M9,0 L9,18 M15,0 L15,18" fill="none" stroke="gray"/></marker></defs><defs><marker orient="auto" markerHeight="18" markerWidth="18" refY="9" refX="18" id="ONLY_ONE_END"><path d="M3,0 L3,18 M9,0 L9,18" fill="none" stroke="gray"/></marker></defs><defs><marker orient="auto" markerHeight="18" markerWidth="30" refY="9" refX="0" id="ZERO_OR_ONE_START"><circle r="6" cy="9" cx="21" fill="white" stroke="gray"/><path d="M9,0 L9,18" fill="none" stroke="gray"/></marker></defs><defs><marker orient="auto" markerHeight="18" markerWidth="30" refY="9" refX="30" id="ZERO_OR_ONE_END"><circle r="6" cy="9" cx="9" fill="white" stroke="gray"/><path d="M21,0 L21,18" fill="none" stroke="gray"/></marker></defs><defs><marker orient="auto" markerHeight="36" markerWidth="45" refY="18" refX="18" id="ONE_OR_MORE_START"><path d="M0,18 Q 18,0 36,18 Q 18,36 0,18 M42,9 L42,27" fill="none" stroke="gray"/></marker></defs><defs><marker orient="auto" markerHeight="36" markerWidth="45" refY="18" refX="27" id="ONE_OR_MORE_END"><path d="M3,9 L3,27 M9,18 Q27,0 45,18 Q27,36 9,18" fill="none" stroke="gray"/></marker></defs><defs><marker orient="auto" markerHeight="36" markerWidth="57" refY="18" refX="18" id="ZERO_OR_MORE_START"><circle r="6" cy="18" cx="48" fill="white" stroke="gray"/><path d="M0,18 Q18,0 36,18 Q18,36 0,18" fill="none" stroke="gray"/></marker></defs><defs><marker orient="auto" markerHeight="36" markerWidth="57" refY="18" refX="39" id="ZERO_OR_MORE_END"><circle r="6" cy="18" cx="9" fill="white" stroke="gray"/><path d="M21,18 Q39,0 57,18 Q39,36 21,18" fill="none" stroke="gray"/></marker></defs><g transform="translate(20,53 )" id="entity-Session-087c087e-5b46-5a6f-a710-5a009604ebd7"><rect height="90" width="100.64054870605469" y="0" x="0" class="er entityBox"/><text style="dominant-baseline: middle; text-anchor: middle; font-size: 12px;" transform="translate(50.320274353027344,12)" y="0" x="0" id="text-entity-Session-087c087e-5b46-5a6f-a710-5a009604ebd7" class="er entityLabel">Session</text><rect height="22" width="37.39605712890625" y="24" x="0" class="er attributeBoxOdd"/><text style="dominant-baseline: middle; font-size: 10.2px;" transform="translate(5,35)" y="0" x="0" id="text-entity-Session-087c087e-5b46-5a6f-a710-5a009604ebd7-attr-1-type" class="er entityLabel">String</text><rect height="22" width="39.22886657714844" y="24" x="37.39605712890625" class="er attributeBoxOdd"/><text style="dominant-baseline: middle; font-size: 10.2px;" transform="translate(42.39605712890625,35)" y="0" x="0" id="text-entity-Session-087c087e-5b46-5a6f-a710-5a009604ebd7-attr-1-name" class="er entityLabel">sid</text><rect height="22" width="24.015625" y="24" x="76.62492370605469" class="er attributeBoxOdd"/><text style="dominant-baseline: middle; font-size: 10.2px;" transform="translate(81.62492370605469,35)" y="0" x="0" id="text-entity-Session-087c087e-5b46-5a6f-a710-5a009604ebd7-attr-1-comment" class="er entityLabel">🗝️</text><rect height="22" width="37.39605712890625" y="46" x="0" class="er attributeBoxEven"/><text style="dominant-baseline: middle; font-size: 10.2px;" transform="translate(5,57)" y="0" x="0" id="text-entity-Session-087c087e-5b46-5a6f-a710-5a009604ebd7-attr-2-type" class="er entityLabel">String</text><rect height="22" width="39.22886657714844" y="46" x="37.39605712890625" class="er attributeBoxEven"/><text style="dominant-baseline: middle; font-size: 10.2px;" transform="translate(42.39605712890625,57)" y="0" x="0" id="text-entity-Session-087c087e-5b46-5a6f-a710-5a009604ebd7-attr-2-name" class="er entityLabel">expire</text><rect height="22" width="24.015625" y="46" x="76.62492370605469" class="er attributeBoxEven"/><text style="dominant-baseline: middle; font-size: 10.2px;" transform="translate(81.62492370605469,57)" y="0" x="0" id="text-entity-Session-087c087e-5b46-5a6f-a710-5a009604ebd7-attr-2-comment" class="er entityLabel"/><rect height="22" width="37.39605712890625" y="68" x="0" class="er attributeBoxOdd"/><text style="dominant-baseline: middle; font-size: 10.2px;" transform="translate(5,79)" y="0" x="0" id="text-entity-Session-087c087e-5b46-5a6f-a710-5a009604ebd7-attr-3-type" class="er entityLabel">String</text><rect height="22" width="39.22886657714844" y="68" x="37.39605712890625" class="er attributeBoxOdd"/><text style="dominant-baseline: middle; font-size: 10.2px;" transform="translate(42.39605712890625,79)" y="0" x="0" id="text-entity-Session-087c087e-5b46-5a6f-a710-5a009604ebd7-attr-3-name" class="er entityLabel">data</text><rect height="22" width="24.015625" y="68" x="76.62492370605469" class="er attributeBoxOdd"/><text style="dominant-baseline: middle; font-size: 10.2px;" transform="translate(81.62492370605469,79)" y="0" x="0" id="text-entity-Session-087c087e-5b46-5a6f-a710-5a009604ebd7-attr-3-comment" class="er entityLabel"/></g><g transform="translate(220.6405487060547,20 )" id="entity-USERS-1e82e395-936c-57a7-8ba9-b08f03574b93"><rect height="156" width="136.71511840820312" y="0" x="0" class="er entityBox"/><text style="dominant-baseline: middle; text-anchor: middle; font-size: 12px;" transform="translate(68.35755920410156,12)" y="0" x="0" id="text-entity-USERS-1e82e395-936c-57a7-8ba9-b08f03574b93" class="er entityLabel">USERS</text><rect height="22" width="54.095550537109375" y="24" x="0" class="er attributeBoxOdd"/><text style="dominant-baseline: middle; font-size: 10.2px;" transform="translate(5,35)" y="0" x="0" id="text-entity-USERS-1e82e395-936c-57a7-8ba9-b08f03574b93-attr-1-type" class="er entityLabel">Int</text><rect height="22" width="58.60394287109375" y="24" x="54.095550537109375" class="er attributeBoxOdd"/><text style="dominant-baseline: middle; font-size: 10.2px;" transform="translate(59.095550537109375,35)" y="0" x="0" id="text-entity-USERS-1e82e395-936c-57a7-8ba9-b08f03574b93-attr-1-name" class="er entityLabel">id</text><rect height="22" width="24.015625" y="24" x="112.69949340820312" class="er attributeBoxOdd"/><text style="dominant-baseline: middle; font-size: 10.2px;" transform="translate(117.69949340820312,35)" y="0" x="0" id="text-entity-USERS-1e82e395-936c-57a7-8ba9-b08f03574b93-attr-1-comment" class="er entityLabel">🗝️</text><rect height="22" width="54.095550537109375" y="46" x="0" class="er attributeBoxEven"/><text style="dominant-baseline: middle; font-size: 10.2px;" transform="translate(5,57)" y="0" x="0" id="text-entity-USERS-1e82e395-936c-57a7-8ba9-b08f03574b93-attr-2-type" class="er entityLabel">String</text><rect height="22" width="58.60394287109375" y="46" x="54.095550537109375" class="er attributeBoxEven"/><text style="dominant-baseline: middle; font-size: 10.2px;" transform="translate(59.095550537109375,57)" y="0" x="0" id="text-entity-USERS-1e82e395-936c-57a7-8ba9-b08f03574b93-attr-2-name" class="er entityLabel">loginId</text><rect height="22" width="24.015625" y="46" x="112.69949340820312" class="er attributeBoxEven"/><text style="dominant-baseline: middle; font-size: 10.2px;" transform="translate(117.69949340820312,57)" y="0" x="0" id="text-entity-USERS-1e82e395-936c-57a7-8ba9-b08f03574b93-attr-2-comment" class="er entityLabel"/><rect height="22" width="54.095550537109375" y="68" x="0" class="er attributeBoxOdd"/><text style="dominant-baseline: middle; font-size: 10.2px;" transform="translate(5,79)" y="0" x="0" id="text-entity-USERS-1e82e395-936c-57a7-8ba9-b08f03574b93-attr-3-type" class="er entityLabel">String</text><rect height="22" width="58.60394287109375" y="68" x="54.095550537109375" class="er attributeBoxOdd"/><text style="dominant-baseline: middle; font-size: 10.2px;" transform="translate(59.095550537109375,79)" y="0" x="0" id="text-entity-USERS-1e82e395-936c-57a7-8ba9-b08f03574b93-attr-3-name" class="er entityLabel">pw</text><rect height="22" width="24.015625" y="68" x="112.69949340820312" class="er attributeBoxOdd"/><text style="dominant-baseline: middle; font-size: 10.2px;" transform="translate(117.69949340820312,79)" y="0" x="0" id="text-entity-USERS-1e82e395-936c-57a7-8ba9-b08f03574b93-attr-3-comment" class="er entityLabel"/><rect height="22" width="54.095550537109375" y="90" x="0" class="er attributeBoxEven"/><text style="dominant-baseline: middle; font-size: 10.2px;" transform="translate(5,101)" y="0" x="0" id="text-entity-USERS-1e82e395-936c-57a7-8ba9-b08f03574b93-attr-4-type" class="er entityLabel">String</text><rect height="22" width="58.60394287109375" y="90" x="54.095550537109375" class="er attributeBoxEven"/><text style="dominant-baseline: middle; font-size: 10.2px;" transform="translate(59.095550537109375,101)" y="0" x="0" id="text-entity-USERS-1e82e395-936c-57a7-8ba9-b08f03574b93-attr-4-name" class="er entityLabel">email</text><rect height="22" width="24.015625" y="90" x="112.69949340820312" class="er attributeBoxEven"/><text style="dominant-baseline: middle; font-size: 10.2px;" transform="translate(117.69949340820312,101)" y="0" x="0" id="text-entity-USERS-1e82e395-936c-57a7-8ba9-b08f03574b93-attr-4-comment" class="er entityLabel"/><rect height="22" width="54.095550537109375" y="112" x="0" class="er attributeBoxOdd"/><text style="dominant-baseline: middle; font-size: 10.2px;" transform="translate(5,123)" y="0" x="0" id="text-entity-USERS-1e82e395-936c-57a7-8ba9-b08f03574b93-attr-5-type" class="er entityLabel">DateTime</text><rect height="22" width="58.60394287109375" y="112" x="54.095550537109375" class="er attributeBoxOdd"/><text style="dominant-baseline: middle; font-size: 10.2px;" transform="translate(59.095550537109375,123)" y="0" x="0" id="text-entity-USERS-1e82e395-936c-57a7-8ba9-b08f03574b93-attr-5-name" class="er entityLabel">createdAt</text><rect height="22" width="24.015625" y="112" x="112.69949340820312" class="er attributeBoxOdd"/><text style="dominant-baseline: middle; font-size: 10.2px;" transform="translate(117.69949340820312,123)" y="0" x="0" id="text-entity-USERS-1e82e395-936c-57a7-8ba9-b08f03574b93-attr-5-comment" class="er entityLabel"/><rect height="22" width="54.095550537109375" y="134" x="0" class="er attributeBoxEven"/><text style="dominant-baseline: middle; font-size: 10.2px;" transform="translate(5,145)" y="0" x="0" id="text-entity-USERS-1e82e395-936c-57a7-8ba9-b08f03574b93-attr-6-type" class="er entityLabel">DateTime</text><rect height="22" width="58.60394287109375" y="134" x="54.095550537109375" class="er attributeBoxEven"/><text style="dominant-baseline: middle; font-size: 10.2px;" transform="translate(59.095550537109375,145)" y="0" x="0" id="text-entity-USERS-1e82e395-936c-57a7-8ba9-b08f03574b93-attr-6-name" class="er entityLabel">updatedAt</text><rect height="22" width="24.015625" y="134" x="112.69949340820312" class="er attributeBoxEven"/><text style="dominant-baseline: middle; font-size: 10.2px;" transform="translate(117.69949340820312,145)" y="0" x="0" id="text-entity-USERS-1e82e395-936c-57a7-8ba9-b08f03574b93-attr-6-comment" class="er entityLabel"/></g></svg>